<?xml version="1.0" encoding="UTF-8" standalone="no"?>
<svg width="11px" height="21px" viewBox="0 0 11 21" version="1.1" xmlns="http://www.w3.org/2000/svg" xmlns:xlink="http://www.w3.org/1999/xlink">
    <!-- Generator: Sketch 3.6 (26304) - http://www.bohemiancoding.com/sketch -->
    <title>phone</title>
    <desc>Created with Sketch.</desc>
    <defs></defs>
    <g id="Page-1" stroke="none" stroke-width="1" fill="none" fill-rule="evenodd">
        <g id="4.-payment-2" transform="translate(-940.000000, -73.000000)" fill="#333333">
            <g id="phone" transform="translate(944.500000, 84.000000) rotate(-15.000000) translate(-944.500000, -84.000000) translate(941.000000, 74.000000)">
                <path d="M6.51233333,0.1022 L5.72617949,0.0224 L5.2234359,5.4474 L6.08210256,5.4478 C6.36246154,5.4634 6.50515385,5.16 6.52758974,4.9418 L6.91905128,0.72 C6.91761538,0.4812 6.75230769,0.2074 6.51233333,0.1022 L6.51233333,0.1022 Z" id="Shape"></path>
                <path d="M3.05541026,9.9988 L3.05864103,9.9988 C3.07497436,8.356 3.22197436,6.9898 3.27887179,6.5182 C3.38674359,5.7984 3.51687179,5.7198 3.90241026,5.5976 C4.16787179,5.514 4.30087179,5.4852 4.50010256,5.4684 L5.00679487,0 C4.58087179,0.0074 3.93489744,0.1162 3.31423077,0.3146 C2.64851282,0.5354 1.99105128,0.851 1.63566667,1.1786 C0.927230769,2.9912 0,6.5984 0,9.9988 L0,10.001 C0,13.4014 0.927230769,17.0086 1.63566667,18.8212 C1.99087179,19.149 2.64851282,19.4646 3.31423077,19.6852 C3.93489744,19.8836 4.58087179,19.9922 5.00679487,20 L4.50010256,14.5312 C4.30087179,14.5148 4.16769231,14.4856 3.90241026,14.402 C3.51705128,14.28 3.38674359,14.2012 3.27887179,13.4814 C3.22215385,13.0098 3.07497436,11.6436 3.05864103,10.0008 L3.05541026,10.0008 L3.05541026,9.9988 L3.05541026,9.9988 Z" id="Shape"></path>
                <path d="M6.52776923,15.0582 C6.50533333,14.84 6.36246154,14.5364 6.08228205,14.5524 L5.22361538,14.5524 L5.72635897,19.9774 L6.51251282,19.8978 C6.75248718,19.7926 6.91779487,19.5186 6.91923077,19.28 L6.52776923,15.0582 L6.52776923,15.0582 Z" id="Shape"></path>
            </g>
        </g>
    </g>
</svg>
