<?xml version="1.0" encoding="UTF-8" standalone="no"?>
<svg width="20px" height="22px" viewBox="0 0 20 22" version="1.1" xmlns="http://www.w3.org/2000/svg" xmlns:xlink="http://www.w3.org/1999/xlink">
    <!-- Generator: Sketch 3.6 (26304) - http://www.bohemiancoding.com/sketch -->
    <title>noun_375549_cc copy 2</title>
    <desc>Created with Sketch.</desc>
    <defs></defs>
    <g id="Page-1" stroke="none" stroke-width="1" fill="none" fill-rule="evenodd">
        <g id="3.-Payment-Copy-2" transform="translate(-84.000000, -744.000000)" fill="#373737">
            <g id="Sicher.-Verschusselt-+-noun_375549_cc-copy-2" transform="translate(84.000000, 744.000000)">
                <g id="noun_375549_cc-copy-2">
                    <path d="M13.2628276,8.73973025 C13.5171045,8.98317678 13.5171045,9.37269122 13.2628276,9.59179309 L9.52495816,13.170457 C9.39781975,13.2921803 9.24525365,13.3408696 9.06725986,13.3408696 L9.06725986,13.3408696 C8.88926608,13.3408696 8.73669998,13.2678356 8.60956156,13.170457 L7.03304518,11.6610886 C6.77876835,11.417642 6.77876835,11.0281276 7.03304518,10.8090257 C7.28732202,10.5655792 7.69416495,10.5655792 7.9230141,10.8090257 L9.04183218,11.8801904 L12.347431,8.73973025 C12.6271355,8.49628373 13.0339785,8.49628373 13.2628276,8.73973025 L13.2628276,8.73973025 Z M10.1606503,21.7641194 C4.79540904,21.7641194 0.421847478,17.5768391 0.421847478,12.4401174 L0.421847478,4.38203745 C0.421847478,4.13859093 0.574413579,3.91948906 0.80326273,3.82211045 L9.90637342,0.19475722 C10.0589395,0.121723263 10.2369333,0.121723263 10.3894994,0.19475722 L19.4926101,3.82211045 C19.7214592,3.91948906 19.8740253,4.13859093 19.8740253,4.38203745 L19.8740253,12.4401174 C19.899453,17.5768391 15.5258915,21.7641194 10.1606503,21.7641194 L10.1606503,21.7641194 Z M18.6280689,12.4401174 L18.6280689,4.79589655 L10.1606503,1.41198985 L1.69323165,4.79589655 L1.69323165,12.4401174 C1.69323165,16.8951888 5.48195649,20.5468867 10.1606503,20.5468867 C14.839344,20.5468867 18.6280689,16.9195335 18.6280689,12.4401174 L18.6280689,12.4401174 Z" id="Shape"></path>
                </g>
            </g>
        </g>
    </g>
</svg>