<?xml version="1.0" encoding="UTF-8" standalone="no"?>
<svg width="21px" height="20px" viewBox="0 0 21 20" version="1.1" xmlns="http://www.w3.org/2000/svg" xmlns:xlink="http://www.w3.org/1999/xlink">
    <!-- Generator: Sketch 3.6 (26304) - http://www.bohemiancoding.com/sketch -->
    <title>forward</title>
    <desc>Created with Sketch.</desc>
    <defs></defs>
    <g id="Page-1" stroke="none" stroke-width="1" fill="none" fill-rule="evenodd">
        <g id="1.-Checkout-summary" transform="translate(-1052.000000, -287.000000)">
            <g id="forward" transform="translate(1062.500000, 297.000000) rotate(90.000000) translate(-1062.500000, -297.000000) translate(1052.500000, 287.000000)">
                <g id="Group">
                    <path d="M9.96844444,0.0635555556 C4.472,0.0635555556 0,4.53511111 0,10.0315556 C0,15.528 4.472,20 9.96844444,20 C15.4648889,20 19.9368889,15.528 19.9368889,10.0315556 C19.9368889,4.53511111 15.4648889,0.0635555556 9.96844444,0.0635555556 L9.96844444,0.0635555556 Z" id="Shape" fill="#FFFFFF"></path>
                    <path d="M9.96844444,6.71155556 L5.32488889,11.3546667 C4.97777778,11.7017778 4.97777778,12.2644444 5.32488889,12.6115556 C5.672,12.9586667 6.23466667,12.9586667 6.58177778,12.6115556 L9.968,9.22533333 L13.3542222,12.6115556 C13.528,12.7853333 13.7551111,12.872 13.9826667,12.872 C14.2102222,12.872 14.4373333,12.7853333 14.6111111,12.6115556 C14.9582222,12.2644444 14.9582222,11.7017778 14.6111111,11.3546667 L9.96844444,6.71155556 L9.96844444,6.71155556 Z" id="Shape" fill="#8217FF"></path>
                </g>
            </g>
        </g>
    </g>
</svg>
