<?xml version="1.0" encoding="UTF-8" standalone="no"?>
<svg width="250px" height="250px" viewBox="0 0 250 250" version="1.1" xmlns="http://www.w3.org/2000/svg" xmlns:xlink="http://www.w3.org/1999/xlink" xmlns:sketch="http://www.bohemiancoding.com/sketch/ns">
    <!-- Generator: Sketch 3.3 (11970) - http://www.bohemiancoding.com/sketch -->
    <title>Artboard 2</title>
    <desc>Created with Sketch.</desc>
    <defs>
        <linearGradient x1="-13.4887914%" y1="-11.486128%" x2="100%" y2="175.78396%" id="linearGradient-1">
            <stop stop-color="#FB9A9C" offset="0%"></stop>
            <stop stop-color="#4222F1" offset="100%"></stop>
        </linearGradient>
    </defs>
    <g id="Page-1" stroke="none" stroke-width="1" fill="none" fill-rule="evenodd" sketch:type="MSPage">
        <g id="Artboard-2" sketch:type="MSArtboardGroup" fill="url(#linearGradient-1)">
            <g id="noun_375549_cc-copy-3" sketch:type="MSLayerGroup" transform="translate(25.000000, 3.000000)">
                <path d="M132.628276,91.3699072 C135.171045,93.91503 135.171045,97.9872264 132.628276,100.277837 L95.2495816,137.691141 C93.9781975,138.963703 92.4525365,139.472727 90.6725986,139.472727 L90.6725986,139.472727 C88.8926608,139.472727 87.3669998,138.709191 86.0956156,137.691141 L70.3304518,121.91138 C67.7876835,119.366258 67.7876835,115.294061 70.3304518,113.003451 C72.8732202,110.458328 76.9416495,110.458328 79.230141,113.003451 L90.4183218,124.201991 L123.47431,91.3699072 C126.271355,88.8247844 130.339785,88.8247844 132.628276,91.3699072 L132.628276,91.3699072 Z M101.606503,227.533975 C47.9540904,227.533975 4.21847478,183.757864 4.21847478,130.055773 L4.21847478,45.8122097 C4.21847478,43.267087 5.74413579,40.9764765 8.0326273,39.9584274 L99.0637342,2.03609821 C100.589395,1.27256138 102.369333,1.27256138 103.894994,2.03609821 L194.926101,39.9584274 C197.214592,40.9764765 198.740253,43.267087 198.740253,45.8122097 L198.740253,130.055773 C198.99453,183.757864 155.258915,227.533975 101.606503,227.533975 L101.606503,227.533975 Z M186.280689,130.055773 L186.280689,50.1389184 L101.606503,14.761712 L16.9323165,50.1389184 L16.9323165,130.055773 C16.9323165,176.63152 54.8195649,214.808361 101.606503,214.808361 C148.39344,214.808361 186.280689,176.886032 186.280689,130.055773 L186.280689,130.055773 Z" id="Shape" sketch:type="MSShapeGroup"></path>
            </g>
        </g>
    </g>
</svg>